<?xml version="1.0" encoding="UTF-8" standalone="no"?>
<!-- Created with Inkscape (http://www.inkscape.org/) -->

<svg
   width="250"
   height="250"
   viewBox="0 0 66.145832 66.145833"
   version="1.1"
   id="svg1"
   xml:space="preserve"
   inkscape:version="1.3.2 (091e20e, 2023-11-25)"
   sodipodi:docname="donors.svg"
   xmlns:inkscape="http://www.inkscape.org/namespaces/inkscape"
   xmlns:sodipodi="http://sodipodi.sourceforge.net/DTD/sodipodi-0.dtd"
   xmlns="http://www.w3.org/2000/svg"
   xmlns:svg="http://www.w3.org/2000/svg"><sodipodi:namedview
     id="namedview1"
     pagecolor="#ffffff"
     bordercolor="#000000"
     borderopacity="0.25"
     inkscape:showpageshadow="2"
     inkscape:pageopacity="0.0"
     inkscape:pagecheckerboard="0"
     inkscape:deskcolor="#d1d1d1"
     inkscape:document-units="mm"
     showguides="true"
     inkscape:zoom="1.590106"
     inkscape:cx="94.333334"
     inkscape:cy="123.57667"
     inkscape:window-width="1440"
     inkscape:window-height="900"
     inkscape:window-x="0"
     inkscape:window-y="0"
     inkscape:window-maximized="0"
     inkscape:current-layer="layer1" /><defs
     id="defs1" /><g
     inkscape:label="Layer 1"
     inkscape:groupmode="layer"
     id="layer1"><path
       style="fill:#FF0033;stroke-width:1.04547"
       d="M 54.153573,60.738868 C 53.748987,60.208426 53.142949,59.623886 52.806824,59.43989 52.370482,59.201035 49.901288,59.101077 44.173861,59.090408 l -8.021823,-0.01494 -3.603796,-1.856438 c -3.1778,-1.636993 -10.035135,-6.384629 -10.31326,-7.140326 -0.04748,-0.129011 0.220807,-0.435807 0.596194,-0.68177 0.84099,-0.551038 1.476381,-0.320898 4.745811,1.718941 2.06476,1.28823 2.20701,1.437717 2.124695,2.232788 -0.103879,1.003331 0.257054,1.23787 3.684211,2.394069 1.467996,0.495248 3.237181,0.830364 5.255677,0.995515 1.673518,0.136927 3.665143,0.329434 4.425833,0.427797 0.905403,0.117074 1.287539,0.08515 1.106458,-0.09246 -0.379812,-0.372515 -3.886231,-0.902571 -5.970674,-0.902571 -1.720802,0 -4.455132,-0.674449 -6.787424,-1.674187 -1.019768,-0.437124 -1.233503,-0.650563 -1.161219,-1.159612 0.101453,-0.714458 0.489699,-0.737988 5.897494,-0.357419 2.943604,0.207153 3.182483,0.179883 7.330287,-0.836823 6.92036,-1.696313 9.454347,-1.517076 12.619603,0.892629 0.867275,0.660253 7.24221,7.554695 7.656154,8.280078 0.185854,0.325673 -0.505214,0.387627 -4.323844,0.387627 H 54.889185 Z M 27.378613,50.411884 c -2.552915,-1.569073 -2.963726,-1.735667 -4.008998,-1.625753 -0.894387,0.09405 -1.273743,0.0019 -1.634942,-0.397243 -0.515338,-0.569444 -0.512309,-0.578104 0.360991,-1.032076 1.090259,-0.566755 2.053536,-0.333159 4.352516,1.05549 1.247069,0.753267 3.28098,1.911142 4.519802,2.57306 l 2.252403,1.203486 -1.498692,-0.01437 c -1.343995,-0.01289 -1.792299,-0.19483 -4.34308,-1.762589 z m 4.003425,-20.250673 c -0.549364,-0.220863 -0.584036,-0.33023 -0.301369,-0.950618 0.337789,-0.741366 0.640239,-0.880571 0.922151,-0.424428 0.291717,0.472009 1.12178,0.30539 1.722565,-0.345768 0.980589,-1.062807 3.176435,-4.425114 3.400759,-5.207284 0.117401,-0.409355 0.06138,-2.408176 -0.124487,-4.441826 l -0.337945,-3.697543 -2.489911,-3.872605 c -3.65627,-5.686665 -3.802955,-5.9472134 -3.348217,-5.9472134 0.532547,0 1.369469,0.975778 2.253889,2.6278389 0.749938,1.4008526 2.876148,4.3931695 5.147175,7.2438645 1.082005,1.35818 1.241999,1.728209 1.223613,2.829909 -0.01164,0.697084 -0.35057,2.263237 -0.75319,3.480342 -0.40262,1.217102 -0.871388,2.766834 -1.041708,3.443845 -0.319102,1.268408 -1.143529,2.200732 -3.948541,4.465307 -1.453088,1.173122 -1.417504,1.160935 -2.324784,0.796179 z m -2.970677,-1.155782 c -0.301786,-0.175496 -1.945155,-1.71554 -3.651933,-3.422318 -3.468897,-3.468896 -3.922497,-3.716476 -8.089999,-4.415596 -3.039395,-0.509874 -3.248918,-0.603791 -5.313993,-2.381967 -2.0544973,-1.769066 -3.0899631,-2.170424 -5.5994911,-2.170424 -1.1334782,0 -2.2577657,-0.07556 -2.4984156,-0.167903 -0.3805478,-0.146029 -0.4375449,-0.95679 -0.4375449,-6.223827 0,-4.7598929 0.076351,-6.0559264 0.3567654,-6.0559264 0.1962205,0 1.5343437,0.3651114 2.9736069,0.8113598 4.7796703,1.4819509 5.4239173,1.5219611 11.8411103,0.7353686 11.786796,-1.444777 11.177226,-1.4600953 12.306958,0.3092779 0.368184,0.576646 1.891286,2.9691021 3.384674,5.3165691 l 2.71525,4.268121 0.231339,3.697834 c 0.258037,4.124583 0.33753,3.816479 -1.788726,6.932873 -1.672137,2.450803 -2.001704,2.735291 -2.596685,2.241502 -0.368116,-0.305509 -0.422587,-0.737044 -0.299114,-2.369643 0.186931,-2.471665 0.613168,-3.403612 1.855969,-4.057994 l 0.967834,-0.5096 -1.020175,0.143661 c -0.616935,0.08688 -1.127791,0.01399 -1.292438,-0.184394 -0.149743,-0.180432 -0.303185,-1.180996 -0.340978,-2.223478 -0.06493,-1.791138 -0.02807,-1.920083 0.670055,-2.34368 0.724649,-0.43969 0.972654,-0.87335 0.49946,-0.87335 -0.131622,0 -0.566292,0.257203 -0.965936,0.571563 l -0.726624,0.571563 -1.332725,-1.12377 c -0.732999,-0.618074 -2.007007,-1.352966 -2.831129,-1.633094 -1.311467,-0.445781 -1.521085,-0.620209 -1.680187,-1.398132 -0.323533,-1.581898 -0.476741,-1.231372 -0.429967,0.983717 0.07442,3.523948 -0.04458,3.581503 -2.454787,1.187377 -1.134982,-1.127407 -2.063604,-1.921741 -2.063604,-1.765188 0,0.156554 1.857687,2.174483 4.128193,4.484286 3.359173,3.417311 4.312464,4.567975 5.11737,6.176887 0.544046,1.087485 0.989176,2.277895 0.989176,2.645354 0,0.769928 -0.725796,2.300323 -1.090939,2.300323 -0.135788,0 -0.412664,0.05889 -0.615279,0.130866 -0.202615,0.07198 -0.615308,-0.01272 -0.917091,-0.188218 z M 25.979374,18.339602 c -0.707989,-0.73898 -0.719592,-0.802612 -0.340509,-1.867148 0.215853,-0.606153 0.397923,-1.319422 0.4046,-1.585044 0.01143,-0.455106 0.09052,-0.453162 1.37189,0.03372 1.376495,0.523027 4.172158,2.690554 4.172408,3.234941 9e-5,0.19765 -0.48296,0.231306 -1.452091,0.10117 -1.171801,-0.157353 -1.618775,-0.09436 -2.314719,0.326207 -1.07758,0.651192 -0.970503,0.66537 -1.841579,-0.243839 z"
       id="path1"
       sodipodi:nodetypes="ssscssssssssssssssssscssssssscsssssssscssssssssssssssssssssscssssscsssssscsssssssssssssssssssss" /><path
       style="fill:#FF0033;stroke-width:0.376061"
       d="m 36.359467,46.653715 c -0.551771,-0.593458 -1.968001,-1.970031 -3.14718,-3.059049 -1.179178,-1.089019 -2.312214,-2.198331 -2.517858,-2.465138 -1.562196,-2.026826 -1.520364,-4.937072 0.09892,-6.881628 0.889952,-1.06872 1.948236,-1.535421 3.236573,-1.427322 1.215524,0.101992 2.170221,0.709587 2.985983,1.900373 0.216187,0.315575 0.393069,0.527046 0.393069,0.469937 0,-0.197379 0.916165,-1.295307 1.369773,-1.641529 2.347592,-1.791832 5.562453,-0.285835 6.255143,2.930212 0.194201,0.90165 0.137884,2.214236 -0.1306,3.043729 -0.389585,1.203657 -1.031653,1.934291 -4.446096,5.059368 -0.597699,0.547046 -1.538477,1.479601 -2.090619,2.072345 l -1.003892,1.077717 z"
       id="path2" /></g></svg>
