<?xml version="1.0" encoding="UTF-8" standalone="no"?>
<!-- Created with Inkscape (http://www.inkscape.org/) -->

<svg
   width="250"
   height="250"
   viewBox="0 0 66.145832 66.145833"
   version="1.1"
   id="svg1"
   inkscape:version="1.3.2 (091e20e, 2023-11-25)"
   sodipodi:docname="make_requests.svg"
   xmlns:inkscape="http://www.inkscape.org/namespaces/inkscape"
   xmlns:sodipodi="http://sodipodi.sourceforge.net/DTD/sodipodi-0.dtd"
   xmlns="http://www.w3.org/2000/svg"
   xmlns:svg="http://www.w3.org/2000/svg">
  <sodipodi:namedview
     id="namedview1"
     pagecolor="#ffffff"
     bordercolor="#000000"
     borderopacity="0.25"
     inkscape:showpageshadow="2"
     inkscape:pageopacity="0.0"
     inkscape:pagecheckerboard="0"
     inkscape:deskcolor="#d1d1d1"
     inkscape:document-units="mm"
     inkscape:zoom="1.6167209"
     inkscape:cx="183.39591"
     inkscape:cy="164.83983"
     inkscape:window-width="1440"
     inkscape:window-height="872"
     inkscape:window-x="0"
     inkscape:window-y="28"
     inkscape:window-maximized="0"
     inkscape:current-layer="layer1" />
  <defs
     id="defs1" />
  <g
     inkscape:label="Layer 1"
     inkscape:groupmode="layer"
     id="layer1">
    <path
       style="fill:#DE218E;stroke-width:1.95155"
       d="m 36.17303,57.946368 c -0.327447,-0.272123 -0.362171,-0.486315 -0.378004,-2.331674 -0.01425,-1.667684 0.03271,-2.082145 0.262209,-2.311561 0.248436,-0.248343 0.976413,-0.279539 6.523242,-0.279539 3.647183,0 6.243583,-0.06495 6.243559,-0.156182 -2.3e-5,-0.08591 -0.122167,-0.54821 -0.271447,-1.027363 -0.261504,-0.839395 -0.239636,-1.169545 0.599294,-9.047981 0.478885,-4.49724 0.8707,-8.592146 0.8707,-9.099795 0,-1.212104 -0.546069,-2.941256 -1.226731,-3.884503 -0.300025,-0.415768 -1.456634,-1.741863 -2.570241,-2.946873 -2.144175,-2.320168 -2.392014,-2.817263 -1.711612,-3.433018 0.626905,-0.567341 0.94677,-0.355791 3.304071,2.185214 2.407906,2.595551 3.188464,3.696054 3.745388,5.2806 0.632138,1.798551 0.604746,2.731361 -0.338103,11.51383 -0.91661,8.538056 -0.91595,8.517752 -0.325755,10.038744 0.165999,0.427788 0.247153,0.453845 1.641479,0.527028 1.918837,0.10072 1.933404,0.12125 1.933404,2.727328 0,1.885334 -0.02401,2.029103 -0.380553,2.278835 -0.524454,0.367343 -0.764134,0.336018 -1.265545,-0.165394 -0.387147,-0.387146 -0.427615,-0.551408 -0.390186,-1.583849 l 0.04176,-1.151903 H 45.12991 37.779862 l -0.04635,1.284201 c -0.03819,1.058378 -0.109286,1.336894 -0.404228,1.583849 -0.196834,0.164808 -0.456386,0.299647 -0.576781,0.299647 -0.120391,0 -0.381159,-0.134833 -0.579472,-0.299647 z m 4.268606,-7.250152 C 38.436995,50.303255 36.464377,48.738182 35.49784,46.773813 34.821569,45.399375 34.614436,44.186888 34.613157,41.595182 l -9.91e-4,-2.010935 -2.311442,-2.954644 c -1.786545,-2.283687 -2.374097,-3.164098 -2.587357,-3.876992 -0.844383,-2.822647 1.195138,-5.541467 4.156929,-5.541467 1.539289,0 2.192503,0.408479 4.808508,3.006932 l 2.268756,2.253535 V 21.215823 9.9600373 H 27.335024 13.722487 V 23.32699 c 0,8.886734 0.0594,13.47796 0.177259,13.69815 0.167833,0.313589 0.399953,0.331195 4.366285,0.331195 3.960733,0 4.207698,0.01873 4.531487,0.342455 0.323743,0.323742 0.342454,0.570756 0.342454,4.520761 v 4.178308 l 0.539231,0.187973 c 0.343112,0.119611 2.328308,0.187974 5.458295,0.187974 3.729773,0 4.960464,0.05175 5.090298,0.214034 0.370766,0.463429 0.392176,0.936984 0.06085,1.345949 l -0.331448,0.409125 h -5.280196 -5.280198 l -0.856133,-0.45771 C 21.314933,47.629896 12.502763,38.75978 12.023406,37.698782 11.682533,36.944303 11.675206,36.633971 11.671526,22.791964 11.668403,10.850052 11.705483,8.6040725 11.91077,8.3232931 12.147689,7.9992459 12.531336,7.9897789 27.226352,7.9453733 l 15.072577,-0.045549 0.351677,0.3774807 c 0.348311,0.3738683 0.351675,0.5011797 0.351675,13.301087 v 12.923605 l 1.027363,1.069891 c 1.080012,1.124722 1.230043,1.547937 0.71423,2.01474 -0.789632,0.714607 -1.028721,0.544415 -5.583346,-3.974433 -2.82542,-2.803223 -4.454578,-4.296532 -4.768811,-4.371157 -1.368357,-0.324957 -2.861635,0.87189 -2.861635,2.293575 0,0.687899 0.165803,0.99157 1.449061,2.654016 0.581559,0.753398 1.642443,2.142719 2.357525,3.087379 l 1.300148,1.717565 0.06081,2.905561 c 0.05443,2.601249 0.102769,2.999061 0.461521,3.798298 0.746692,1.663529 2.886511,3.131095 4.565362,3.131095 1.108393,0 1.645302,1.014075 0.903037,1.705599 -0.400353,0.372984 -0.915242,0.411162 -2.185904,0.162076 z M 21.085243,41.72262 c 0,-1.271359 -0.05778,-2.313154 -0.128412,-2.315099 -0.582265,-0.016 -4.293203,-0.02752 -4.492328,-0.01386 -0.246598,0.01678 4.227021,4.64054 4.489949,4.64054 0.07193,0 0.130793,-1.040202 0.130793,-2.311563 z M 18.252216,24.265264 c -0.511002,-0.511004 -0.516466,-0.609846 -0.0654,-1.18328 l 0.354882,-0.451159 h 8.779217 c 8.287708,0 8.795084,0.01756 9.062597,0.31313 0.40446,0.446923 0.357719,1.156425 -0.09717,1.475042 -0.332191,0.232676 -1.475587,0.266551 -8.997194,0.266551 h -8.616642 z m -0.07828,-4.117757 c -0.117483,-0.141546 -0.213597,-0.449522 -0.213597,-0.684379 0,-0.976865 -0.346164,-0.941748 9.283486,-0.941748 8.362376,0 8.872098,0.01737 9.139671,0.31313 0.371766,0.410797 0.359659,0.934576 -0.02976,1.286987 -0.282844,0.255973 -1.166768,0.283379 -9.139671,0.283379 -7.644962,0 -8.855137,-0.03445 -9.040138,-0.257369 z m 4.281109,-4.19453 c -0.188344,-0.188344 -0.342454,-0.496559 -0.342454,-0.684907 0,-0.188344 0.154114,-0.496558 0.342454,-0.684908 0.325109,-0.325109 0.570757,-0.342455 4.850117,-0.342455 4.490419,0 4.50909,0.0015 4.879966,0.396298 0.463882,0.493778 0.469495,0.804621 0.02319,1.283685 -0.342162,0.367267 -0.439501,0.374741 -4.879966,0.374741 -4.302539,0 -4.548099,-0.01717 -4.873296,-0.342454 z"
       id="path1" />
  </g>
</svg>
