<?xml version="1.0" encoding="UTF-8" standalone="no"?>
<!-- Created with Inkscape (http://www.inkscape.org/) -->

<svg
   width="250"
   height="250"
   viewBox="0 0 66.145832 66.145833"
   version="1.1"
   id="svg1"
   xml:space="preserve"
   inkscape:version="1.3.2 (091e20e, 2023-11-25)"
   sodipodi:docname="NGO.svg"
   xmlns:inkscape="http://www.inkscape.org/namespaces/inkscape"
   xmlns:sodipodi="http://sodipodi.sourceforge.net/DTD/sodipodi-0.dtd"
   xmlns="http://www.w3.org/2000/svg"
   xmlns:svg="http://www.w3.org/2000/svg"><sodipodi:namedview
     id="namedview1"
     pagecolor="#ffffff"
     bordercolor="#000000"
     borderopacity="0.25"
     inkscape:showpageshadow="2"
     inkscape:pageopacity="0.0"
     inkscape:pagecheckerboard="0"
     inkscape:deskcolor="#d1d1d1"
     inkscape:document-units="mm"
     inkscape:zoom="1.6329151"
     inkscape:cx="40.112311"
     inkscape:cy="90.32925"
     inkscape:window-width="1440"
     inkscape:window-height="872"
     inkscape:window-x="0"
     inkscape:window-y="28"
     inkscape:window-maximized="0"
     inkscape:current-layer="layer1" /><defs
     id="defs1" /><g
     inkscape:label="Layer 1"
     inkscape:groupmode="layer"
     id="layer1"><path
       id="path1"
       style="fill:#000000;fill-opacity:1"
       d="M 15.436118,25.717145 C 13.18471,25.152169 11.122787,23.505526 10.001478,21.377056 9.3805396,20.198395 9.2956386,19.735199 9.2951586,17.523808 c -6.2e-4,-2.879405 0.4356217,-4.009496 2.2469594,-5.820833 1.811008,-1.8110092 2.941473,-2.2474972 5.82083,-2.2474972 2.112678,0 2.694781,0.09665 3.64994,0.6060412 3.059857,1.631815 4.65731,4.192885 4.65456,7.462289 -0.001,1.47761 -0.15339,2.328428 -0.59579,3.331605 -0.732459,1.660904 -2.670192,3.607547 -4.31063,4.330462 -1.450839,0.639361 -3.914611,0.885174 -5.32491,0.53127 v 0" /><path
       id="path4"
       style="fill:#000000;fill-opacity:1"
       d="m 2.6835176,47.249449 c -0.00724,-1.38211 -0.00494,-3.062266 -0.00494,-5.119391 0,-10.203442 0.013531,-10.476115 0.571081,-11.509375 1.228532,-2.276727 3.019084,-3.307291 5.746244,-3.307291 h 1.7041094 l 1.65564,2.945612 c 1.441529,2.564685 1.69804,2.887622 1.98353,2.497184 0.26566,-0.363305 0.22969,-0.795499 -0.1895,-2.276776 -0.793309,-2.803268 -0.685366,-2.901437 3.19018,-2.901437 3.957186,0 4.002319,0.03741 3.35545,2.78128 -0.3136,1.330236 -0.38011,2.102961 -0.20753,2.411339 0.29412,0.525562 0.0768,0.808881 2.25827,-2.943661 l 1.38432,-2.38125 h 1.99575 c 1.758278,0 2.149191,0.09493 3.28532,0.797835 0.938229,0.580467 1.490991,1.183399 2.02887,2.213026 l 0.73931,1.415191 v 10.246922 c 0,2.037305 -1.6e-4,3.669837 -0.0053,4.987276" /><path
       id="path2"
       style="fill:#000000;fill-opacity:1;stroke:none;stroke-width:1.68037;stroke-opacity:1"
       d="m 48.26339,24.666408 c -2.002486,-0.909602 -4.061357,-3.104249 -4.481093,-4.776605 -0.487316,-1.941628 0.07717,-5.913253 1.021671,-7.188392 3.491371,-4.7135452 10.122155,-4.7293182 13.60048,-0.03235 0.988261,1.334502 1.464037,4.472966 1.029343,6.790084 -0.587013,3.129044 -4.343494,6.023438 -7.817505,6.023438 -0.855855,0 -2.364661,-0.367277 -3.352896,-0.816171 v -4e-6 0" /><path
       id="path5"
       style="fill:#000000;fill-opacity:1;stroke:none;stroke-width:1.68037;stroke-opacity:1"
       d="m 40.088603,46.286091 c -0.01866,-1.376925 -0.02419,-2.997701 -0.02537,-4.909731 l -0.0066,-10.579465 1.091292,-1.091293 c 1.089665,-1.089666 1.105274,-1.091291 10.468317,-1.091291 9.363043,0 9.378651,0.0016 10.468316,1.091291 l 1.091292,1.091293 -0.0066,10.579465 c -0.0012,1.890227 -0.0066,3.495805 -0.02475,4.862533" /><path
       id="path3"
       style="fill:#000000;fill-opacity:1;stroke:#DE218E;stroke-width:0.865;stroke-opacity:1"
       d="m 32.179622,31.871735 c -2.510794,-0.822545 -4.498437,-2.563405 -5.641231,-4.940838 -0.72173,-1.501457 -0.766979,-1.738964 -0.766979,-4.025789 0,-2.240738 0.05337,-2.537004 0.684606,-3.800215 0.91815,-1.837379 2.528067,-3.425116 4.350416,-4.290461 1.382157,-0.656327 1.666096,-0.706411 4.005132,-0.706411 2.34271,0 2.611854,0.04766 3.876264,0.686594 1.834095,0.926794 3.422913,2.526062 4.25324,4.281214 0.630897,1.333605 0.681437,1.632379 0.681604,4.029535 1.64e-4,2.359606 -0.05561,2.703429 -0.629197,3.878324 -0.809317,1.657762 -2.329266,3.170157 -4.189054,4.168237 -1.365748,0.732948 -1.645362,0.796059 -3.763993,0.849508 -1.258754,0.03175 -2.546119,-0.02664 -2.860808,-0.129698 v 0" /><path
       id="path8"
       style="fill:#000000;fill-opacity:1;stroke:#DE218E;stroke-width:0.865;stroke-opacity:1"
       d="m 13.453769,56.024333 c 0.0192,-5.034902 0.07343,-9.513857 0.161784,-10.909878 0.162645,-2.569727 0.259849,-3.030431 0.941624,-4.462864 1.064768,-2.237114 3.271208,-4.415447 5.58578,-5.514636 1.689361,-0.80227 1.859243,-0.834345 5.573572,-1.052178 2.107103,-0.123574 7.590207,-0.170232 12.184661,-0.103679 7.552888,0.109397 8.496144,0.165587 9.841179,0.586306 1.876221,0.586867 3.211022,1.441447 4.793906,3.069203 1.52861,1.571945 2.157566,2.579 2.815052,4.507338 0.463827,1.360346 0.504462,1.656679 0.564785,13.45795" /></g></svg>
