<?xml version="1.0" encoding="UTF-8" standalone="no"?>
<!-- Created with Inkscape (http://www.inkscape.org/) -->

<svg
   width="250"
   height="250"
   viewBox="0 0 66.145832 66.145833"
   version="1.1"
   id="svg1"
   inkscape:version="1.3.2 (091e20e, 2023-11-25)"
   sodipodi:docname="sign_up.svg"
   xmlns:inkscape="http://www.inkscape.org/namespaces/inkscape"
   xmlns:sodipodi="http://sodipodi.sourceforge.net/DTD/sodipodi-0.dtd"
   xmlns="http://www.w3.org/2000/svg"
   xmlns:svg="http://www.w3.org/2000/svg">
  <sodipodi:namedview
     id="namedview1"
     pagecolor="#ffffff"
     bordercolor="#000000"
     borderopacity="0.25"
     inkscape:showpageshadow="2"
     inkscape:pageopacity="0.0"
     inkscape:pagecheckerboard="0"
     inkscape:deskcolor="#d1d1d1"
     inkscape:document-units="mm"
     inkscape:zoom="1.4221647"
     inkscape:cx="140.63069"
     inkscape:cy="140.27911"
     inkscape:window-width="1440"
     inkscape:window-height="872"
     inkscape:window-x="0"
     inkscape:window-y="28"
     inkscape:window-maximized="0"
     inkscape:current-layer="layer1" />
  <defs
     id="defs1" />
  <g
     inkscape:label="Layer 1"
     inkscape:groupmode="layer"
     id="layer1">
    <path
       style="fill:#DE218E"
       d="m 34.994218,48.60559 c -0.454316,-0.163215 -1.290313,-0.831379 -2.309522,-1.845865 l -1.597452,-1.59005 -1.244813,1.201766 c -1.494103,1.442434 -2.108167,1.638224 -3.377302,1.076825 -0.797573,-0.352804 -1.101541,-0.74756 -1.454979,-1.889539 -0.0541,-0.174802 -0.243948,-0.318126 -0.421884,-0.3185 -0.654317,-0.0014 -1.457828,-0.683538 -1.770987,-1.503533 -0.258231,-0.676168 -0.420315,-0.841932 -0.99019,-1.012671 -0.818848,-0.245333 -1.24014,-0.677629 -1.556126,-1.596773 -0.161369,-0.469388 -0.376647,-0.724635 -0.679473,-0.805624 -1.22015,-0.326318 -2.078478,-1.517465 -1.897426,-2.633159 0.09152,-0.563954 0.04361,-0.633668 -0.734186,-1.068387 -0.457651,-0.255786 -0.850481,-0.443441 -0.872957,-0.417011 -0.02248,0.02643 -0.216022,0.395386 -0.430103,0.819904 -0.272486,0.540334 -0.503906,0.77185 -0.77153,0.77185 -0.540673,0 -7.3587425,-3.574828 -7.4949253,-3.929715 -0.071101,-0.185287 1.3042651,-2.941104 3.7377553,-7.489326 4.475343,-8.364472 4.589166,-8.558255 5.026912,-8.558255 0.458818,0 6.76077,3.469657 6.998813,3.853327 0.149433,0.240851 0.07884,0.545707 -0.30989,1.338318 -0.276872,0.564531 -0.479086,1.047155 -0.449365,1.072497 0.15649,0.133432 1.237946,0.637106 1.367952,0.637106 0.08331,0 0.284491,-0.224745 0.447067,-0.499433 0.511263,-0.863826 1.655157,-1.893264 2.597703,-2.33778 1.050146,-0.495261 2.100956,-0.546591 3.244144,-0.158468 0.779786,0.264744 0.834753,0.257935 1.749645,-0.216727 0.589901,-0.306052 1.329914,-0.517859 1.970848,-0.564099 0.967081,-0.06977 1.233532,0.01783 4.619094,1.518544 l 3.592812,1.592585 1.092768,-0.522295 c 1.487519,-0.710969 1.539941,-0.799271 1.08503,-1.827673 -0.208647,-0.471682 -0.334149,-1.000045 -0.278893,-1.174141 0.118837,-0.374422 7.226866,-3.292961 7.636804,-3.135652 0.142781,0.05479 0.427935,0.479049 0.633678,0.942798 0.205742,0.46375 1.808798,4.140672 3.562346,8.170939 2.857008,6.566402 3.159499,7.356529 2.911359,7.604669 -0.40414,0.40414 -7.429215,3.27414 -7.787497,3.181477 -0.167112,-0.04322 -0.483074,-0.520186 -0.702137,-1.059922 -0.419044,-1.032458 -0.517676,-1.102042 -1.111568,-0.784201 -0.367112,0.196472 -0.367143,0.198466 -0.0093,0.590238 1.432915,1.568799 1.144483,3.83868 -0.602099,4.738352 l -0.731221,0.376655 0.164796,0.762418 c 0.139564,0.645682 0.09858,0.895904 -0.267644,1.634243 -0.609433,1.228654 -1.411494,1.720198 -2.695782,1.652113 l -1.00567,-0.05331 -0.363224,0.724832 c -0.526418,1.050496 -1.364333,1.545471 -2.614825,1.544637 -0.696171,-4.65e-4 -1.20516,-0.11515 -1.612038,-0.363224 -0.685549,-0.417979 -0.767461,-0.435437 -0.767461,-0.163565 0,0.109438 -0.169894,0.437572 -0.377541,0.729187 -0.698841,0.98143 -2.013095,1.391885 -3.149511,0.983623 z M 36.5336,47.233252 c 0.391182,-0.209354 0.897999,-1.086274 0.897999,-1.553761 0,-0.168245 -0.718733,-1.05085 -1.597186,-1.961346 -2.101261,-2.177907 -2.105317,-2.18367 -1.85965,-2.642701 0.110332,-0.206158 0.339758,-0.374833 0.509836,-0.374833 0.170078,0 1.4986,1.187385 2.952272,2.638634 2.94467,2.939761 3.431335,3.210783 4.398871,2.449719 0.399773,-0.314462 0.499376,-0.54141 0.499376,-1.13785 0,-0.716212 -0.102501,-0.848365 -2.64891,-3.415253 -2.132601,-2.149751 -2.637032,-2.754184 -2.587968,-3.101028 0.04159,-0.294043 0.199332,-0.450375 0.496852,-0.492425 0.356309,-0.05036 1.009992,0.511769 3.579689,3.078319 2.927294,2.923708 3.189664,3.139929 3.8101,3.139929 0.502013,0 0.772474,-0.123411 1.096813,-0.500479 0.831701,-0.966909 0.706164,-1.178969 -2.763389,-4.668002 -2.595286,-2.609857 -3.182436,-3.292756 -3.132803,-3.643687 0.04128,-0.291882 0.199222,-0.451428 0.487255,-0.492205 0.339712,-0.04809 0.950451,0.456219 3.010336,2.485756 1.424509,1.40352 2.79334,2.598589 3.050292,2.66308 0.536121,0.134558 1.491523,-0.289219 1.663719,-0.737956 0.340617,-0.887632 0.12512,-1.334187 -1.506373,-3.121525 -2.525884,-2.767163 -3.145868,-3.210477 -8.171675,-5.843088 l -4.614926,-2.417384 -0.58766,0.280236 c -0.424117,0.202247 -0.715829,0.560193 -1.048212,1.286212 -0.693196,1.51414 -1.979059,2.164597 -3.454562,1.7475 -1.36491,-0.385835 -2.116767,-1.290603 -2.113311,-2.54311 0.0025,-0.92154 1.167603,-3.394143 2.152698,-4.568662 0.304002,-0.362459 0.501955,-0.709791 0.439896,-0.77185 -0.06206,-0.06206 -0.498605,-0.112835 -0.970101,-0.112835 -1.223744,0 -2.388681,0.829479 -3.243133,2.309234 -0.358477,0.620817 -0.789528,1.176298 -0.957891,1.234403 -0.168364,0.0581 -0.799404,-0.143366 -1.402313,-0.447714 -0.602908,-0.304347 -1.134751,-0.553358 -1.181872,-0.553358 -0.04712,0 -0.7137,1.205448 -1.481288,2.678774 -0.767587,1.473325 -1.877387,3.595463 -2.466222,4.71586 l -1.070608,2.037088 0.953981,0.544841 0.953981,0.544841 0.457663,-0.425799 c 0.69444,-0.646092 1.168304,-0.833404 2.10835,-0.833404 0.762276,0 0.933032,0.0796 1.540374,0.718046 0.593483,0.623881 0.713099,0.681853 0.912114,0.442055 1.081314,-1.302904 3.697328,-0.800108 4.095716,0.787193 0.08491,0.338319 0.227651,0.413659 0.783723,0.413659 1.464003,0 2.613898,1.463507 2.256728,2.872205 -0.161624,0.637455 -0.134988,0.700565 0.561096,1.32941 0.69947,0.631905 0.731472,0.708761 0.747051,1.794111 l 0.01628,1.133925 1.637362,1.61111 c 1.653106,1.626602 2.041143,1.824695 2.789634,1.424115 z m -7.233146,-2.305906 c 1.044301,-1.038176 1.411509,-1.526945 1.411509,-1.878776 0,-0.630102 -0.58467,-1.151636 -1.135941,-1.013276 -0.525339,0.131852 -3.222741,2.873465 -3.222741,3.275562 0,0.424731 0.659951,1.019721 1.131055,1.019721 0.261704,0 0.903143,-0.49561 1.816118,-1.403231 z m -1.920422,-2.990809 c 1.609206,-1.587681 2.060649,-2.13983 2.060649,-2.520327 0,-0.531097 -0.223051,-0.779566 -0.881231,-0.981652 -0.371088,-0.113939 -0.69909,0.140722 -2.497162,1.938793 -1.385563,1.385564 -2.06996,2.202192 -2.06996,2.469893 0,0.470563 0.597809,1.12638 1.026751,1.12638 0.165167,0 1.227596,-0.914889 2.360953,-2.033087 z M 24.775586,39.63638 c 0.967618,-0.984873 1.759307,-1.906529 1.759307,-2.048125 0,-0.508174 -0.557199,-1.064714 -1.065974,-1.064714 -0.393519,0 -0.876711,0.382875 -2.25985,1.790678 -0.967618,0.984873 -1.759306,1.906529 -1.759306,2.048125 0,0.508174 0.557198,1.064715 1.065974,1.064715 0.393518,0 0.87671,-0.382876 2.259849,-1.790679 z m -3.594183,-1.319852 c 0.964059,-0.888638 1.090659,-1.602813 0.368058,-2.076279 -0.583195,-0.382124 -1.015223,-0.225908 -1.810883,0.654793 -0.74979,0.829927 -0.834072,1.476541 -0.246135,1.888348 0.592881,0.41527 0.791531,0.36036 1.68896,-0.466862 z m -5.630799,-4.199344 c 0.576863,-1.123722 2.185962,-4.237969 3.575776,-6.920547 1.389813,-2.682578 2.500258,-4.90409 2.467655,-4.936692 -0.198373,-0.198373 -5.093635,-2.822605 -5.153547,-2.762692 -0.240102,0.240102 -7.3410571,13.664278 -7.2973385,13.795434 0.049409,0.148227 4.9935755,2.844134 5.2457805,2.860367 0.06206,0.004 0.584811,-0.912147 1.161674,-2.03587 z m -5.183447,-1.32185 c -0.207759,-0.250335 -0.193273,-0.391015 0.09547,-0.927181 0.187216,-0.347638 0.528499,-0.83504 0.758407,-1.083115 0.343932,-0.371108 0.482714,-0.41642 0.783077,-0.25567 0.499593,0.267374 0.448634,0.86121 -0.14814,1.726296 -0.548684,0.795374 -1.10826,0.998211 -1.488815,0.53967 z m 43.994418,1.745163 c 1.420925,-0.591241 2.611363,-1.158574 2.645419,-1.26074 0.04659,-0.13977 -5.70251,-13.623532 -6.059631,-14.212072 -0.09739,-0.1605 -5.228859,1.948147 -5.306307,2.180493 -0.04946,0.148393 5.354053,13.596966 5.717928,14.231095 0.133651,0.232915 0.346951,0.166225 3.002591,-0.938776 z m 0.04881,-2.56104 c -0.58564,-1.155705 -0.54602,-1.700208 0.129384,-1.778145 0.428758,-0.04948 0.550441,0.06129 0.964127,0.877664 0.58564,1.155705 0.54602,1.700208 -0.129385,1.778145 -0.428757,0.04948 -0.55044,-0.0613 -0.964126,-0.877664 z m -5.99743,2.2403 c 0.352991,-0.16833 0.641802,-0.377914 0.641802,-0.465741 0,-0.343775 -3.874223,-9.580077 -4.018422,-9.580077 -0.08439,0 -0.692607,0.286039 -1.3516,0.635642 -0.658993,0.349602 -1.38519,0.635641 -1.613772,0.635641 -0.228581,0 -1.999319,-0.708675 -3.934972,-1.574833 -2.329021,-1.04218 -3.736028,-1.572535 -4.159937,-1.568041 -1.619299,0.01717 -3.666621,1.761328 -4.970695,4.234647 -0.787338,1.493272 -0.851074,1.702292 -0.659851,2.163945 0.343468,0.829205 1.561381,1.193682 2.266313,0.678223 0.182874,-0.133721 0.550186,-0.685367 0.816249,-1.225879 0.384613,-0.781353 0.667854,-1.084231 1.38212,-1.47794 0.494105,-0.272355 1.079199,-0.497099 1.300209,-0.499433 0.22101,-0.0023 1.283439,0.472715 2.360953,1.055663 1.077514,0.582948 3.322687,1.775558 4.989274,2.650246 2.752048,1.444378 3.168758,1.729002 4.540294,3.101137 0.830576,0.830937 1.568659,1.518009 1.640185,1.526825 0.07153,0.0088 0.418858,-0.121696 0.77185,-0.290025 z"
       id="path1" />
  </g>
</svg>
