<?xml version="1.0" encoding="UTF-8" standalone="no"?>
<!-- Created with Inkscape (http://www.inkscape.org/) -->

<svg
   width="250"
   height="250"
   viewBox="0 0 66.145832 66.145833"
   version="1.1"
   id="svg1"
   inkscape:version="1.3.2 (091e20e, 2023-11-25)"
   sodipodi:docname="sweood.svg"
   xml:space="preserve"
   xmlns:inkscape="http://www.inkscape.org/namespaces/inkscape"
   xmlns:sodipodi="http://sodipodi.sourceforge.net/DTD/sodipodi-0.dtd"
   xmlns:xlink="http://www.w3.org/1999/xlink"
   xmlns="http://www.w3.org/2000/svg"
   xmlns:svg="http://www.w3.org/2000/svg"><sodipodi:namedview
     id="namedview1"
     pagecolor="#ffffff"
     bordercolor="#000000"
     borderopacity="0.25"
     inkscape:showpageshadow="2"
     inkscape:pageopacity="0.0"
     inkscape:pagecheckerboard="0"
     inkscape:deskcolor="#d1d1d1"
     inkscape:document-units="mm"
     inkscape:zoom="1.556516"
     inkscape:cx="135.88039"
     inkscape:cy="124.3161"
     inkscape:window-width="1440"
     inkscape:window-height="900"
     inkscape:window-x="0"
     inkscape:window-y="0"
     inkscape:window-maximized="0"
     inkscape:current-layer="layer1" /><defs
     id="defs1" /><g
     inkscape:label="Layer 1"
     inkscape:groupmode="layer"
     id="layer1"><path
       style="fill:none;fill-opacity:1;stroke:#000000;stroke-width:0.610223;stroke-linejoin:round;stroke-dasharray:none;stroke-opacity:1"
       d="m 33.076624,8.2741948 0.09505,49.4723492 v 0"
       id="path26" /><path
       style="fill:none;fill-opacity:1;stroke:#000000;stroke-width:0.610223;stroke-linejoin:round;stroke-dasharray:none;stroke-opacity:1"
       d="m 34.337754,8.2741948 0.09505,49.4723492 v 0"
       id="path27" /><path
       style="fill:none;fill-opacity:1;stroke:#000000;stroke-width:0.610223;stroke-linejoin:round;stroke-dasharray:none;stroke-opacity:1"
       d="m 31.774042,8.2741948 0.09505,49.4723492 v 0"
       id="path28" /><path
       id="path1"
       style="fill:none;stroke:#000000;stroke-width:1.065;stroke-dasharray:none;stroke-opacity:1;fill-opacity:1"
       d="m 35.835062,8.820113 a 24.421795,24.421795 0 0 1 21.553779,24.252805 v 0 A 24.421795,24.421795 0 0 1 35.93278,57.313968" /><path
       id="path9"
       style="fill:none;stroke:#000000;stroke-width:1.065;stroke-dasharray:none;stroke-opacity:1"
       d="M 30.357193,57.354861 A 24.421795,24.421795 0 0 1 8.5452513,33.072918 24.421795,24.421795 0 0 1 30.261864,8.8014108" /><path
       id="circle1"
       style="fill:none;stroke:#000000;stroke-width:0.916787;stroke-dasharray:none;stroke-opacity:1"
       d="m 35.841394,12.247263 a 21.023077,21.023077 0 0 1 18.148729,20.825655 v 0 a 21.023077,21.023077 0 0 1 -18.0666,20.814154" /><path
       id="path11"
       style="fill:none;stroke:#000000;stroke-width:0.916787;stroke-dasharray:none;stroke-opacity:1"
       d="M 30.351989,53.932718 A 21.023077,21.023077 0 0 1 11.943969,33.072918 21.023077,21.023077 0 0 1 30.27026,12.223527" /><path
       id="path2"
       style="fill:none;stroke:#000000;stroke-width:0.995036;stroke-dasharray:none;stroke-opacity:1"
       d="m 30.343008,47.676716 0.0224,9.83759 v 0 0" /><path
       id="path17"
       style="fill:none;stroke:#000000;stroke-width:0.995036;stroke-dasharray:none;stroke-opacity:1"
       d="m 30.253284,8.2736415 0.02325,10.2101755" /><path
       id="path3"
       style="fill:none;stroke:#000000;stroke-width:1.04324;stroke-dasharray:none;stroke-opacity:1"
       d="m 35.915534,47.605704 0.02026,9.890849 v 0 l -0.003,-2.713095" /><path
       id="path14"
       style="fill:none;stroke:#000000;stroke-width:1.04324;stroke-dasharray:none;stroke-opacity:1"
       d="M 35.835019,8.2913948 35.855907,18.49075" /><circle
       style="fill:#f9f9f9;stroke:#000000;stroke-width:1.065;stroke-dasharray:none;stroke-opacity:1"
       id="path12"
       cx="32.967045"
       cy="33.072918"
       r="14.865559" /><path
       style="fill:#000000;stroke-width:0.123441;fill-opacity:1"
       d="m 32.717295,37.903406 c -1.076102,-0.647209 -2.116842,-1.458804 -2.993554,-2.334449 -0.787701,-0.786741 -1.320129,-1.503527 -1.698209,-2.286225 -0.391391,-0.810259 -0.517637,-1.320805 -0.51687,-2.090262 3.71e-4,-0.427132 0.01297,-0.568174 0.06869,-0.772301 0.3616,-1.324823 1.454278,-2.240824 2.786321,-2.335799 0.874837,-0.06238 1.84951,0.370374 2.468739,1.096106 0.11654,0.136585 0.224695,0.248335 0.240344,0.248335 0.01565,0 0.110802,-0.09984 0.211451,-0.221857 0.344646,-0.41783 0.953451,-0.826603 1.485666,-0.997528 0.645516,-0.207312 1.341847,-0.16616 2.021689,0.119479 0.676876,0.284393 1.314779,0.922189 1.605394,1.605124 0.191735,0.450571 0.237028,0.684877 0.240106,1.242111 0.003,0.545751 -0.05369,0.896678 -0.231238,1.431044 -0.485541,1.461319 -1.784369,3.014657 -3.728176,4.458726 -0.670649,0.498231 -1.476503,1.001594 -1.60334,1.0015 -0.04644,-3.3e-5 -0.207087,-0.07384 -0.357008,-0.164004 z"
       id="path20"
       sodipodi:nodetypes="sssccssscssscsssss" /><path
       id="rect20"
       style="fill:#000000;fill-opacity:1;stroke:#000000;stroke-width:0.682;stroke-linejoin:round;stroke-dasharray:none;stroke-opacity:1"
       d="M 33.171619 60.11434 L 9.6475487 60.11434 C 8.9153688 60.11434 8.325923 59.524894 8.325923 58.792714 C 8.325923 58.060534 8.9153688 57.471088 9.6475487 57.471088 L 9.6475487 57.471088 L 33.178337 57.471088 " /><path
       id="path23"
       style="fill:none;fill-opacity:0;stroke:#000000;stroke-width:0.682;stroke-linejoin:round;stroke-dasharray:none;stroke-opacity:1"
       d="M 33.178337 57.471088 L 56.498285 57.471088 C 57.230465 57.471088 57.819911 58.060534 57.819911 58.792714 C 57.819911 59.524894 57.230465 60.11434 56.498285 60.11434 L 33.171619 60.11434 " /><circle
       style="fill:#000000;fill-opacity:1;stroke:#000000;stroke-width:0.682001;stroke-linejoin:round;stroke-dasharray:none;stroke-opacity:1"
       id="path21"
       cx="33.166023"
       cy="58.726593"
       r="1.7249469" /><path
       style="fill:#000000;stroke-width:1.65696"
       d="m 42.060485,44.616729 c -1.935142,-0.944867 -3.250182,-0.728492 -5.008382,-0.800216 -1.247065,-0.05087 -2.322567,0.08328 -3.733827,0.465738 -0.90572,0.245455 -1.607196,0.269428 -2.360983,0.08069 -0.658383,-0.16485 -1.712588,-0.54315 -3.213086,-1.153009 -4.00486,-1.627724 -4.483551,-1.808392 -5.862377,-2.212598 -0.437271,-0.128182 -0.814954,-0.264468 -0.839295,-0.302846 -0.02434,-0.03838 -0.04462,-0.15191 -0.04507,-0.252279 -6.53e-4,-0.146044 0.04515,-0.226545 0.229265,-0.402956 0.495146,-0.474435 1.295103,-0.552282 2.543619,-0.247533 0.396052,0.09667 1.224162,0.244186 1.840243,0.327807 0.616081,0.08363 1.222161,0.168557 1.346845,0.188742 l 0.226697,0.0367 v 0.251496 c 0,0.35156 0.187196,0.688111 0.470343,0.845607 0.138439,0.077 0.419811,0.153335 0.743019,0.201572 0.288393,0.04303 0.793544,0.174272 1.133614,0.294504 1.142009,0.403757 1.511729,0.485038 2.080275,0.457337 0.278703,-0.01359 1.106813,-0.136832 1.840243,-0.273888 1.87386,-0.350176 2.053605,-0.400059 2.053605,-0.569905 0,-0.127602 -0.08615,-0.126857 -0.616593,0.0053 -0.23295,0.05806 -1.047627,0.216761 -1.810395,0.352681 -1.77122,0.315622 -1.843344,0.312633 -3.151633,-0.130584 -0.597816,-0.202527 -1.15191,-0.353185 -1.479983,-0.402407 -0.571755,-0.08578 -0.733318,-0.162183 -0.89146,-0.421538 -0.259428,-0.425473 -0.0076,-1.03603 0.544505,-1.320698 0.376071,-0.193867 0.674401,-0.224809 2.258212,-0.234222 1.083782,-0.0065 1.610745,-0.02956 1.760232,-0.07721 0.117346,-0.03741 0.681424,-0.292349 1.253499,-0.566515 1.553537,-0.74453 2.137506,-0.893953 3.493796,-0.893972 0.86124,-1.4e-5 1.453801,0.08207 2.242595,0.310656 0.563199,0.16321 0.868178,0.315318 1.399199,0.697883 0.701058,0.505048 1.333087,0.778774 2.625695,1.137164 0.7678,0.212879 2.027644,0.731881 2.081677,0.780728 0.0227,0.0205 -0.300501,0.475442 -0.417631,0.810676 -1.239668,3.546465 -1.052906,1.527026 -1.092192,1.539826 -0.02519,0.0083 -1.042362,1.746387 -1.425765,1.559177 z M 28.014758,27.739365 c -0.538999,-0.05543 -1.399847,-0.251468 -1.859552,-0.423469 -0.169857,-0.06354 -0.607882,-0.314631 -0.973388,-0.557953 -0.760761,-0.50645 -1.270597,-0.740662 -2.213058,-1.016656 -1.2397,-0.363039 -1.891957,-0.567801 -1.932968,-0.606812 -0.04865,-0.04628 -0.776123,-0.67834 2.611244,-4.158915 -0.445657,1.789799 0.585386,-0.532274 0.949772,-0.352126 1.978607,0.9782 2.2401,1.109589 4.107525,1.179779 1.136263,0.04272 2.070506,-0.06616 3.324311,-0.387378 1.890505,-0.48434 2.448813,-0.39975 5.503522,0.833833 0.63075,0.254716 1.830914,0.739776 2.667014,1.077913 1.728951,0.699214 2.463595,0.963975 3.595412,1.295769 0.43727,0.128182 0.814957,0.264468 0.839298,0.302847 0.1678,0.264569 -0.08716,0.702176 -0.520914,0.894038 -0.605733,0.267938 -1.121825,0.269382 -2.182343,0.0061 -0.353197,-0.08769 -1.097303,-0.220367 -1.653543,-0.294847 -0.556256,-0.07448 -1.185386,-0.162729 -1.398073,-0.1961 L 38.4923,25.274708 v -0.250994 c 0,-0.351031 -0.187385,-0.687711 -0.47035,-0.845107 -0.138438,-0.077 -0.419813,-0.153335 -0.74302,-0.201572 -0.288391,-0.04303 -0.793543,-0.174272 -1.133613,-0.294504 -0.935661,-0.330803 -1.514262,-0.47346 -1.920282,-0.47346 -0.19889,0 -0.898329,0.09605 -1.554309,0.213457 -2.124599,0.380241 -2.499533,0.476883 -2.499533,0.644274 0,0.118207 0.168693,0.137014 0.409136,0.0456 0.08215,-0.03123 0.869825,-0.189259 1.75037,-0.351162 2.038968,-0.374896 2.078139,-0.373986 3.416205,0.07932 0.600298,0.203366 1.154459,0.354116 1.482894,0.403392 0.571756,0.08578 0.733319,0.162183 0.89146,0.421538 0.257591,0.422449 0.0078,1.035907 -0.536051,1.316385 -0.399351,0.205965 -0.627271,0.23039 -2.239996,0.240043 -1.104665,0.0066 -1.637118,0.02969 -1.786902,0.07743 -0.117346,0.03741 -0.681425,0.291689 -1.2535,0.565068 -0.572076,0.27338 -1.196158,0.547692 -1.386849,0.609584 -0.755938,0.245352 -1.995782,0.358673 -2.903202,0.265354 z"
       id="path24"
       sodipodi:nodetypes="cssssssssssscsscscsscssssccsssscscccccccssscscsscsssssscsscsscssssssscssscc" /><ellipse
       style="fill:none;fill-opacity:0.381333;stroke:none;stroke-width:0.731691;stroke-linejoin:round;stroke-dasharray:none;stroke-opacity:1"
       id="path29"
       cx="-45.920025"
       cy="8.8874531"
       rx="26.197685"
       ry="26.540598"
       transform="rotate(-124.04629)" /><text
       xml:space="preserve"
       style="font-style:normal;font-variant:normal;font-weight:normal;font-stretch:normal;font-size:8.47037px;font-family:'Times New Roman';-inkscape-font-specification:'Times New Roman, Normal';font-variant-ligatures:normal;font-variant-caps:normal;font-variant-numeric:normal;font-variant-east-asian:normal;fill:#000000;fill-opacity:1;stroke:none;stroke-width:1.81946;stroke-linejoin:round;stroke-dasharray:none;stroke-opacity:1"
       id="text29"><textPath
         xlink:href="#path29"
         id="textPath31"><tspan
           id="tspan29"
           style="font-style:normal;font-variant:normal;font-weight:normal;font-stretch:normal;font-size:8.47037px;font-family:'Times New Roman';-inkscape-font-specification:'Times New Roman, Normal';font-variant-ligatures:normal;font-variant-caps:normal;font-variant-numeric:normal;font-variant-east-asian:normal;stroke-width:1.81946;fill:#000000;fill-opacity:1">ClearAid</tspan></textPath></text><circle
       style="fill:#000000;fill-opacity:1;stroke:none;stroke-width:0.682001;stroke-linejoin:round;stroke-dasharray:none;stroke-opacity:1"
       id="circle34"
       cx="43.476929"
       cy="4.5402231"
       r="0.74595493"
       inkscape:transform-center-x="-8.9014754"
       inkscape:transform-center-y="-20.712331"
       transform="rotate(10.447334)" /><circle
       style="fill:#000000;fill-opacity:1;stroke:none;stroke-width:0.682001;stroke-linejoin:round;stroke-dasharray:none;stroke-opacity:1"
       id="circle35"
       cx="49.030529"
       cy="-6.3225884"
       r="0.74595493"
       inkscape:transform-center-x="-13.95891"
       inkscape:transform-center-y="-17.702705"
       transform="rotate(25.447334)" /><circle
       style="fill:#000000;fill-opacity:1;stroke:none;stroke-width:0.682001;stroke-linejoin:round;stroke-dasharray:none;stroke-opacity:1"
       id="circle36"
       cx="51.583393"
       cy="-18.252638"
       r="0.74595493"
       inkscape:transform-center-x="-18.065069"
       inkscape:transform-center-y="-13.486668"
       transform="rotate(40.447334)" /><circle
       style="fill:#000000;fill-opacity:1;stroke:none;stroke-width:0.682001;stroke-linejoin:round;stroke-dasharray:none;stroke-opacity:1"
       id="circle37"
       cx="50.961548"
       cy="-30.436909"
       r="0.74595493"
       inkscape:transform-center-x="-20.940123"
       inkscape:transform-center-y="-8.3515367"
       transform="rotate(55.447334)" /><circle
       style="fill:#000000;fill-opacity:1;stroke:none;stroke-width:0.682001;stroke-linejoin:round;stroke-dasharray:none;stroke-opacity:1"
       id="circle38"
       cx="47.207375"
       cy="-42.045063"
       r="0.74595493"
       inkscape:transform-center-x="-22.388142"
       inkscape:transform-center-y="-2.6472637"
       transform="rotate(70.447334)" /><circle
       style="fill:#000000;fill-opacity:1;stroke:none;stroke-width:0.682001;stroke-linejoin:round;stroke-dasharray:none;stroke-opacity:1"
       id="circle39"
       cx="40.576702"
       cy="-52.28603"
       r="0.74595493"
       inkscape:transform-center-x="-22.310445"
       inkscape:transform-center-y="3.2374169"
       transform="rotate(85.447334)" /><circle
       style="fill:#000000;fill-opacity:1;stroke:none;stroke-width:0.682001;stroke-linejoin:round;stroke-dasharray:none;stroke-opacity:1"
       id="circle40"
       cx="31.52141"
       cy="-60.461903"
       r="0.74595493"
       inkscape:transform-center-x="-20.712332"
       inkscape:transform-center-y="8.90147"
       transform="rotate(100.44733)" /><circle
       style="fill:#000000;fill-opacity:1;stroke:none;stroke-width:0.682001;stroke-linejoin:round;stroke-dasharray:none;stroke-opacity:1"
       id="circle41"
       cx="20.658598"
       cy="-66.015503"
       r="0.74595493"
       inkscape:transform-center-x="-17.702709"
       inkscape:transform-center-y="13.958907"
       transform="rotate(115.44733)" /><circle
       style="fill:#000000;fill-opacity:1;stroke:none;stroke-width:0.682001;stroke-linejoin:round;stroke-dasharray:none;stroke-opacity:1"
       id="circle42"
       cx="8.728549"
       cy="-68.568375"
       r="0.74595493"
       inkscape:transform-center-x="-13.486669"
       inkscape:transform-center-y="18.065064"
       transform="rotate(130.44733)" /><circle
       style="fill:#000000;fill-opacity:1;stroke:none;stroke-width:0.682001;stroke-linejoin:round;stroke-dasharray:none;stroke-opacity:1"
       id="circle43"
       cx="-3.4557233"
       cy="-67.946526"
       r="0.74595493"
       inkscape:transform-center-x="-8.3515391"
       inkscape:transform-center-y="20.940118"
       transform="rotate(145.44733)" /><circle
       style="fill:#000000;fill-opacity:1;stroke:none;stroke-width:0.682001;stroke-linejoin:round;stroke-dasharray:none;stroke-opacity:1"
       id="circle44"
       cx="-33.480717"
       cy="-48.50639"
       r="0.74595493"
       inkscape:transform-center-x="8.9014724"
       inkscape:transform-center-y="20.71233"
       transform="rotate(-169.55267)" /><circle
       style="fill:#000000;fill-opacity:1;stroke:none;stroke-width:0.682001;stroke-linejoin:round;stroke-dasharray:none;stroke-opacity:1"
       id="circle45"
       cx="-39.034321"
       cy="-37.64357"
       r="0.74595493"
       inkscape:transform-center-x="13.958905"
       inkscape:transform-center-y="17.702703"
       transform="rotate(-154.55267)" /><circle
       style="fill:#000000;fill-opacity:1;stroke:none;stroke-width:0.682001;stroke-linejoin:round;stroke-dasharray:none;stroke-opacity:1"
       id="circle46"
       cx="-41.587185"
       cy="-25.713526"
       r="0.74595493"
       inkscape:transform-center-x="18.065065"
       inkscape:transform-center-y="13.486668"
       transform="rotate(-139.55267)" /><circle
       style="fill:#000000;fill-opacity:1;stroke:none;stroke-width:0.682001;stroke-linejoin:round;stroke-dasharray:none;stroke-opacity:1"
       id="circle47"
       cx="-40.96534"
       cy="-13.529254"
       r="0.74595493"
       inkscape:transform-center-x="20.94012"
       inkscape:transform-center-y="8.3515379"
       transform="rotate(-124.55267)" /><circle
       style="fill:#000000;fill-opacity:1;stroke:none;stroke-width:0.682001;stroke-linejoin:round;stroke-dasharray:none;stroke-opacity:1"
       id="circle48"
       cx="-37.211166"
       cy="-1.9210953"
       r="0.74595493"
       inkscape:transform-center-x="22.38814"
       inkscape:transform-center-y="2.6472622"
       transform="rotate(-109.55267)" /><circle
       style="fill:#000000;fill-opacity:1;stroke:none;stroke-width:0.682001;stroke-linejoin:round;stroke-dasharray:none;stroke-opacity:1"
       id="circle49"
       cx="-30.58049"
       cy="8.3198709"
       r="0.74595493"
       inkscape:transform-center-x="22.310447"
       inkscape:transform-center-y="-3.2374184"
       transform="rotate(-94.552666)" /><circle
       style="fill:#000000;fill-opacity:1;stroke:none;stroke-width:0.682001;stroke-linejoin:round;stroke-dasharray:none;stroke-opacity:1"
       id="circle50"
       cx="-21.5252"
       cy="16.495743"
       r="0.74595493"
       inkscape:transform-center-x="20.712332"
       inkscape:transform-center-y="-8.9014755"
       transform="rotate(-79.552666)" /><circle
       style="fill:#000000;fill-opacity:1;stroke:none;stroke-width:0.682001;stroke-linejoin:round;stroke-dasharray:none;stroke-opacity:1"
       id="circle51"
       cx="-10.662388"
       cy="22.049345"
       r="0.74595493"
       inkscape:transform-center-x="17.702704"
       inkscape:transform-center-y="-13.95891"
       transform="rotate(-64.552666)" /><circle
       style="fill:#000000;fill-opacity:1;stroke:none;stroke-width:0.682001;stroke-linejoin:round;stroke-dasharray:none;stroke-opacity:1"
       id="circle52"
       cx="1.2676611"
       cy="24.602209"
       r="0.74595493"
       inkscape:transform-center-x="13.486668"
       inkscape:transform-center-y="-18.065069"
       transform="rotate(-49.552666)" /><circle
       style="fill:#000000;fill-opacity:1;stroke:none;stroke-width:0.682001;stroke-linejoin:round;stroke-dasharray:none;stroke-opacity:1"
       id="circle53"
       cx="13.451933"
       cy="23.980366"
       r="0.74595493"
       inkscape:transform-center-x="8.3515367"
       inkscape:transform-center-y="-20.940122"
       transform="rotate(-34.552666)" /></g></svg>
