<?xml version="1.0" encoding="UTF-8" standalone="no"?>
<!-- Created with Inkscape (http://www.inkscape.org/) -->

<svg
   width="250"
   height="250"
   viewBox="0 0 66.145832 66.145833"
   version="1.1"
   id="svg1"
   xml:space="preserve"
   inkscape:version="1.3.2 (091e20e, 2023-11-25)"
   sodipodi:docname="trusted_donation.svg"
   xmlns:inkscape="http://www.inkscape.org/namespaces/inkscape"
   xmlns:sodipodi="http://sodipodi.sourceforge.net/DTD/sodipodi-0.dtd"
   xmlns="http://www.w3.org/2000/svg"
   xmlns:svg="http://www.w3.org/2000/svg"><sodipodi:namedview
     id="namedview1"
     pagecolor="#ffffff"
     bordercolor="#000000"
     borderopacity="0.25"
     inkscape:showpageshadow="2"
     inkscape:pageopacity="0.0"
     inkscape:pagecheckerboard="0"
     inkscape:deskcolor="#d1d1d1"
     inkscape:document-units="mm"
     showguides="false"
     inkscape:zoom="0.67729433"
     inkscape:cx="377.23629"
     inkscape:cy="6.6440834"
     inkscape:window-width="1440"
     inkscape:window-height="872"
     inkscape:window-x="0"
     inkscape:window-y="28"
     inkscape:window-maximized="0"
     inkscape:current-layer="layer1" /><defs
     id="defs1" /><g
     inkscape:label="Layer 1"
     inkscape:groupmode="layer"
     id="layer1"><path
       style="fill:#DE218E;stroke-width:1.75271"
       d="M 21.891412,47.332828 C 8.409468,33.935426 6.8489878,31.693245 6.8005745,25.649528 6.7527607,19.680733 9.828128,14.634309 15.149724,11.949264 20.06167,9.4709091 27.767045,10.286577 31.363902,13.665649 l 1.013203,0.951855 2.006863,-1.35469 c 3.204065,-2.162836 4.947614,-2.682109 8.962917,-2.669382 2.873614,0.0091 4.258173,0.256955 6.142156,1.099499 l 2.43226,1.087742 1.858642,-1.67917 c 1.022254,-0.923545 2.275404,-1.6791719 2.784781,-1.6791719 1.241537,0 2.781084,1.6061859 2.781084,2.9014619 0,1.562685 -25.311444,26.777704 -26.880106,26.777704 -0.837923,0 -2.695524,-1.558922 -7.068937,-5.932333 -5.116778,-5.116778 -5.932332,-6.135355 -5.932332,-7.409101 0,-1.800727 1.688472,-3.140212 3.339387,-2.649176 0.586363,0.174412 3.051641,2.277847 5.478394,4.674316 l 4.412282,4.357216 7.590446,-7.600917 c 7.025221,-7.034915 7.519071,-7.639117 6.631958,-8.113887 -1.48653,-0.795565 -5.667391,-0.595564 -7.743647,0.370437 -1.020221,0.474669 -2.785295,1.826516 -3.922384,3.004105 -1.137089,1.17759 -2.264676,2.141072 -2.505745,2.141072 -0.241071,0 -1.551843,-1.053133 -2.91283,-2.340296 -2.958365,-2.7979 -4.902371,-3.688284 -8.052756,-3.688284 -5.213065,0 -9.734897,4.474283 -9.734897,9.632528 0,3.435337 1.803127,5.875106 11.485201,15.540361 l 9.189928,9.173964 9.071155,-9.173964 c 4.989136,-5.045679 9.499348,-10.013588 10.022693,-11.039796 0.523346,-1.026208 1.10032,-2.857977 1.282163,-4.070598 0.340029,-2.267466 1.134121,-3.106441 2.940258,-3.106441 1.767042,0 2.498734,1.322573 2.294414,4.147272 -0.344575,4.763715 -1.45906,6.284212 -13.530625,18.459906 -8.613738,8.688038 -11.412018,11.245621 -12.303967,11.245621 -0.881084,0 -3.392635,-2.224081 -10.604449,-9.390674 z"
       id="path1"
       sodipodi:nodetypes="sssscssscsssssssscssssssssscssssssss" /></g></svg>
